<svg xmlns="http://www.w3.org/2000/svg" style="display:none">

  <symbol id="icon-today" viewBox="0 0 24 24">
    <rect x="3" y="4" width="18" height="17" rx="2" fill="none" stroke="currentColor" stroke-width="1.5"/>
    <line x1="3" y1="9" x2="21" y2="9" stroke="currentColor" stroke-width="1.5"/>
    <line x1="8" y1="2" x2="8" y2="6" stroke="currentColor" stroke-width="1.5" stroke-linecap="round"/>
    <line x1="16" y1="2" x2="16" y2="6" stroke="currentColor" stroke-width="1.5" stroke-linecap="round"/>
    <circle cx="12" cy="15" r="2" fill="currentColor"/>
  </symbol>

  <symbol id="icon-jump" viewBox="0 0 24 24">
    <rect x="3" y="4" width="18" height="17" rx="2" fill="none" stroke="currentColor" stroke-width="1.5"/>
    <line x1="3" y1="9" x2="21" y2="9" stroke="currentColor" stroke-width="1.5"/>
    <line x1="8" y1="2" x2="8" y2="6" stroke="currentColor" stroke-width="1.5" stroke-linecap="round"/>
    <line x1="16" y1="2" x2="16" y2="6" stroke="currentColor" stroke-width="1.5" stroke-linecap="round"/>
    <line x1="12" y1="12" x2="12" y2="18" stroke="currentColor" stroke-width="1.5" stroke-linecap="round"/>
    <line x1="9" y1="15" x2="15" y2="15" stroke="currentColor" stroke-width="1.5" stroke-linecap="round"/>
  </symbol>

  <symbol id="icon-search" viewBox="0 0 24 24">
    <circle cx="10.5" cy="10.5" r="6.5" fill="none" stroke="currentColor" stroke-width="1.5"/>
    <line x1="15.5" y1="15.5" x2="21" y2="21" stroke="currentColor" stroke-width="1.5" stroke-linecap="round"/>
  </symbol>

  <symbol id="icon-sync" viewBox="0 0 24 24">
    <path d="M4 12a8 8 0 0 1 14.93-3.93" fill="none" stroke="currentColor" stroke-width="1.5" stroke-linecap="round"/>
    <path d="M20 12a8 8 0 0 1-14.93 3.93" fill="none" stroke="currentColor" stroke-width="1.5" stroke-linecap="round"/>
    <polyline points="19,4 19,9 14,9" fill="none" stroke="currentColor" stroke-width="1.5" stroke-linejoin="round" stroke-linecap="round"/>
    <polyline points="5,20 5,15 10,15" fill="none" stroke="currentColor" stroke-width="1.5" stroke-linejoin="round" stroke-linecap="round"/>
  </symbol>

  <symbol id="icon-plus" viewBox="0 0 24 24">
    <line x1="12" y1="5" x2="12" y2="19" stroke="currentColor" stroke-width="2" stroke-linecap="round"/>
    <line x1="5" y1="12" x2="19" y2="12" stroke="currentColor" stroke-width="2" stroke-linecap="round"/>
  </symbol>

  <symbol id="icon-dots" viewBox="0 0 24 24">
    <circle cx="12" cy="5" r="1.5" fill="currentColor"/>
    <circle cx="12" cy="12" r="1.5" fill="currentColor"/>
    <circle cx="12" cy="19" r="1.5" fill="currentColor"/>
  </symbol>

  <symbol id="icon-chevron-up" viewBox="0 0 24 24">
    <polyline points="6,15 12,9 18,15" fill="none" stroke="currentColor" stroke-width="1.5" stroke-linecap="round" stroke-linejoin="round"/>
  </symbol>

  <symbol id="icon-chevron-down" viewBox="0 0 24 24">
    <polyline points="6,9 12,15 18,9" fill="none" stroke="currentColor" stroke-width="1.5" stroke-linecap="round" stroke-linejoin="round"/>
  </symbol>

  <symbol id="icon-chevron-left" viewBox="0 0 24 24">
    <polyline points="15,6 9,12 15,18" fill="none" stroke="currentColor" stroke-width="1.5" stroke-linecap="round" stroke-linejoin="round"/>
  </symbol>

  <symbol id="icon-chevron-right" viewBox="0 0 24 24">
    <polyline points="9,6 15,12 9,18" fill="none" stroke="currentColor" stroke-width="1.5" stroke-linecap="round" stroke-linejoin="round"/>
  </symbol>

  <symbol id="icon-calendar" viewBox="0 0 24 24">
    <rect x="3" y="4" width="18" height="17" rx="2" fill="none" stroke="currentColor" stroke-width="1.5"/>
    <line x1="3" y1="9" x2="21" y2="9" stroke="currentColor" stroke-width="1.5"/>
    <line x1="8" y1="2" x2="8" y2="6" stroke="currentColor" stroke-width="1.5" stroke-linecap="round"/>
    <line x1="16" y1="2" x2="16" y2="6" stroke="currentColor" stroke-width="1.5" stroke-linecap="round"/>
  </symbol>

  <symbol id="icon-check" viewBox="0 0 24 24">
    <polyline points="4,13 9,18 20,6" fill="none" stroke="currentColor" stroke-width="1.5" stroke-linecap="round" stroke-linejoin="round"/>
  </symbol>

  <symbol id="icon-bell" viewBox="0 0 24 24">
    <path d="M6 10a6 6 0 0 1 12 0v5l2 2H4l2-2v-5z" fill="none" stroke="currentColor" stroke-width="1.5" stroke-linejoin="round"/>
    <line x1="10" y1="19" x2="14" y2="19" stroke="currentColor" stroke-width="1.5" stroke-linecap="round"/>
  </symbol>

  <symbol id="icon-expand" viewBox="0 0 24 24">
    <polyline points="15,3 21,3 21,9" fill="none" stroke="currentColor" stroke-width="1.5" stroke-linecap="round" stroke-linejoin="round"/>
    <polyline points="9,21 3,21 3,15" fill="none" stroke="currentColor" stroke-width="1.5" stroke-linecap="round" stroke-linejoin="round"/>
    <line x1="21" y1="3" x2="14" y2="10" stroke="currentColor" stroke-width="1.5" stroke-linecap="round"/>
    <line x1="3" y1="21" x2="10" y2="14" stroke="currentColor" stroke-width="1.5" stroke-linecap="round"/>
  </symbol>

  <symbol id="icon-copy" viewBox="0 0 24 24">
    <rect x="9" y="9" width="12" height="12" rx="2" fill="none" stroke="currentColor" stroke-width="1.5"/>
    <path d="M5 15H4a2 2 0 0 1-2-2V4a2 2 0 0 1 2-2h9a2 2 0 0 1 2 2v1" fill="none" stroke="currentColor" stroke-width="1.5"/>
  </symbol>

  <symbol id="icon-trash" viewBox="0 0 24 24">
    <polyline points="3,6 5,6 21,6" fill="none" stroke="currentColor" stroke-width="1.5" stroke-linecap="round"/>
    <path d="M19 6l-1 14a2 2 0 0 1-2 2H8a2 2 0 0 1-2-2L5 6" fill="none" stroke="currentColor" stroke-width="1.5"/>
    <path d="M10 11v6M14 11v6" fill="none" stroke="currentColor" stroke-width="1.5" stroke-linecap="round"/>
    <path d="M9 6V4a1 1 0 0 1 1-1h4a1 1 0 0 1 1 1v2" fill="none" stroke="currentColor" stroke-width="1.5"/>
  </symbol>

  <symbol id="icon-image" viewBox="0 0 24 24">
    <rect x="3" y="3" width="18" height="18" rx="2" fill="none" stroke="currentColor" stroke-width="1.5"/>
    <circle cx="8.5" cy="8.5" r="1.5" fill="currentColor"/>
    <polyline points="21,15 16,10 5,21" fill="none" stroke="currentColor" stroke-width="1.5" stroke-linejoin="round" stroke-linecap="round"/>
  </symbol>

  <symbol id="icon-smile" viewBox="0 0 24 24">
    <circle cx="12" cy="12" r="9" fill="none" stroke="currentColor" stroke-width="1.5"/>
    <path d="M8 14s1.5 2 4 2 4-2 4-2" fill="none" stroke="currentColor" stroke-width="1.5" stroke-linecap="round"/>
    <circle cx="9" cy="10" r="1" fill="currentColor"/>
    <circle cx="15" cy="10" r="1" fill="currentColor"/>
  </symbol>

  <symbol id="icon-list" viewBox="0 0 24 24">
    <line x1="8"   y1="6"  x2="21" y2="6"  stroke="currentColor" stroke-width="1.6" stroke-linecap="round"/>
    <line x1="8"   y1="12" x2="21" y2="12" stroke="currentColor" stroke-width="1.6" stroke-linecap="round"/>
    <line x1="8"   y1="18" x2="21" y2="18" stroke="currentColor" stroke-width="1.6" stroke-linecap="round"/>
    <circle cx="3.5" cy="6"  r="1" fill="currentColor"/>
    <circle cx="3.5" cy="12" r="1" fill="currentColor"/>
    <circle cx="3.5" cy="18" r="1" fill="currentColor"/>
  </symbol>

</svg>
